<svg shape-rendering="crispEdges" viewBox="0 0 30 30" fill="none" xmlns="http://www.w3.org/2000/svg"><style>rect{width:1px; height: 1px;} .bg{width:30px; height: 30px;} </style><g id="Trait"><rect x="11" y="3" width="1" height="1" fill="#1c2c5c"/><rect x="12" y="3" width="1" height="1" fill="#1c2c5c"/><rect x="13" y="3" width="1" height="1" fill="#1c2c5c"/><rect x="14" y="3" width="1" height="1" fill="#1c2c5c"/><rect x="10" y="4" width="1" height="1" fill="#1c2c5c"/><rect x="11" y="4" width="1" height="1" fill="#1c2c5c"/><rect x="12" y="4" width="1" height="1" fill="#1c2c5c"/><rect x="13" y="4" width="1" height="1" fill="#1c2c5c"/><rect x="14" y="4" width="1" height="1" fill="#1c2c5c"/><rect x="15" y="4" width="1" height="1" fill="#1c2c5c"/><rect x="9" y="5" width="1" height="1" fill="#1c2c5c"/><rect x="12" y="5" width="1" height="1" fill="#1c2c5c"/><rect x="13" y="5" width="1" height="1" fill="#1c2c5c"/><rect x="14" y="5" width="1" height="1" fill="#1c2c5c"/><rect x="15" y="5" width="1" height="1" fill="#1c2c5c"/><rect x="16" y="5" width="1" height="1" fill="#1c2c5c"/><rect x="13" y="6" width="1" height="1" fill="#1c2c5c"/><rect x="14" y="6" width="1" height="1" fill="#1c2c5c"/><rect x="15" y="6" width="1" height="1" fill="#1c2c5c"/><rect x="16" y="6" width="1" height="1" fill="#1c2c5c"/><rect x="17" y="6" width="1" height="1" fill="#1c2c5c"/><rect x="12" y="7" width="1" height="1" fill="#1c2c5c"/><rect x="13" y="7" width="1" height="1" fill="#1c2c5c"/><rect x="14" y="7" width="1" height="1" fill="#1c2c5c"/><rect x="15" y="7" width="1" height="1" fill="#1c2c5c"/><rect x="16" y="7" width="1" height="1" fill="#1c2c5c"/><rect x="17" y="7" width="1" height="1" fill="#1c2c5c"/><rect x="18" y="7" width="1" height="1" fill="#1c2c5c"/><rect x="11" y="8" width="1" height="1" fill="#1c2c5c"/><rect x="12" y="8" width="1" height="1" fill="#1c2c5c"/><rect x="13" y="8" width="1" height="1" fill="#1c2c5c"/><rect x="14" y="8" width="1" height="1" fill="#1c2c5c"/><rect x="15" y="8" width="1" height="1" fill="#1c2c5c"/><rect x="16" y="8" width="1" height="1" fill="#1c2c5c"/><rect x="17" y="8" width="1" height="1" fill="#1c2c5c"/><rect x="18" y="8" width="1" height="1" fill="#1c2c5c"/><rect x="11" y="9" width="1" height="1" fill="#000000"/><rect x="12" y="9" width="1" height="1" fill="#000000"/><rect x="13" y="9" width="1" height="1" fill="#000000"/><rect x="14" y="9" width="1" height="1" fill="#000000"/><rect x="15" y="9" width="1" height="1" fill="#fff53a"/><rect x="16" y="9" width="1" height="1" fill="#fff53a"/><rect x="17" y="9" width="1" height="1" fill="#000000"/><rect x="18" y="9" width="1" height="1" fill="#000000"/><rect x="9" y="10" width="1" height="1" fill="#1c2c5c"/><rect x="10" y="10" width="1" height="1" fill="#1c2c5c"/><rect x="11" y="10" width="1" height="1" fill="#1c2c5c"/><rect x="12" y="10" width="1" height="1" fill="#1c2c5c"/><rect x="13" y="10" width="1" height="1" fill="#1c2c5c"/><rect x="14" y="10" width="1" height="1" fill="#1c2c5c"/><rect x="15" y="10" width="1" height="1" fill="#1c2c5c"/><rect x="16" y="10" width="1" height="1" fill="#1c2c5c"/><rect x="17" y="10" width="1" height="1" fill="#1c2c5c"/><rect x="18" y="10" width="1" height="1" fill="#1c2c5c"/><rect x="19" y="10" width="1" height="1" fill="#1c2c5c"/><rect x="20" y="10" width="1" height="1" fill="#1c2c5c"/></g></svg>