<svg shape-rendering="crispEdges" viewBox="0 0 30 30" fill="none" xmlns="http://www.w3.org/2000/svg"><style>rect{width:1px; height: 1px;} .bg{width:30px; height: 30px;} </style><g id="Trait"><rect x="11" y="5" width="1" height="1" fill="#6c491a"/><rect x="12" y="5" width="1" height="1" fill="#6c491a"/><rect x="18" y="5" width="1" height="1" fill="#6c491a"/><rect x="19" y="5" width="1" height="1" fill="#6c491a"/><rect x="10" y="6" width="1" height="1" fill="#6c491a"/><rect x="11" y="6" width="1" height="1" fill="#ffffff"/><rect x="12" y="6" width="1" height="1" fill="#ffffff"/><rect x="13" y="6" width="1" height="1" fill="#6c491a"/><rect x="17" y="6" width="1" height="1" fill="#6c491a"/><rect x="18" y="6" width="1" height="1" fill="#ffffff"/><rect x="19" y="6" width="1" height="1" fill="#ffffff"/><rect x="20" y="6" width="1" height="1" fill="#6c491a"/><rect x="10" y="7" width="1" height="1" fill="#6c491a"/><rect x="11" y="7" width="1" height="1" fill="#ffffff"/><rect x="12" y="7" width="1" height="1" fill="#000000"/><rect x="13" y="7" width="1" height="1" fill="#6c491a"/><rect x="17" y="7" width="1" height="1" fill="#6c491a"/><rect x="18" y="7" width="1" height="1" fill="#ffffff"/><rect x="19" y="7" width="1" height="1" fill="#000000"/><rect x="20" y="7" width="1" height="1" fill="#6c491a"/><rect x="10" y="8" width="1" height="1" fill="#6c491a"/><rect x="11" y="8" width="1" height="1" fill="#6c491a"/><rect x="12" y="8" width="1" height="1" fill="#6c491a"/><rect x="13" y="8" width="1" height="1" fill="#6c491a"/><rect x="14" y="8" width="1" height="1" fill="#6c491a"/><rect x="15" y="8" width="1" height="1" fill="#6c491a"/><rect x="16" y="8" width="1" height="1" fill="#6c491a"/><rect x="17" y="8" width="1" height="1" fill="#6c491a"/><rect x="18" y="8" width="1" height="1" fill="#6c491a"/><rect x="19" y="8" width="1" height="1" fill="#6c491a"/><rect x="20" y="8" width="1" height="1" fill="#6c491a"/><rect x="10" y="9" width="1" height="1" fill="#6c491a"/><rect x="11" y="9" width="1" height="1" fill="#6c491a"/><rect x="12" y="9" width="1" height="1" fill="#6c491a"/><rect x="13" y="9" width="1" height="1" fill="#6c491a"/><rect x="14" y="9" width="1" height="1" fill="#6c491a"/><rect x="15" y="9" width="1" height="1" fill="#6c491a"/><rect x="16" y="9" width="1" height="1" fill="#6c491a"/><rect x="17" y="9" width="1" height="1" fill="#6c491a"/><rect x="18" y="9" width="1" height="1" fill="#6c491a"/><rect x="19" y="9" width="1" height="1" fill="#6c491a"/><rect x="20" y="9" width="1" height="1" fill="#6c491a"/><rect x="10" y="10" width="1" height="1" fill="#6c491a"/><rect x="11" y="10" width="1" height="1" fill="#6c491a"/><rect x="19" y="10" width="1" height="1" fill="#6c491a"/><rect x="20" y="10" width="1" height="1" fill="#6c491a"/><rect x="10" y="11" width="1" height="1" fill="#6c491a"/><rect x="20" y="11" width="1" height="1" fill="#6c491a"/><rect x="9" y="12" width="1" height="1" fill="#614217"/><rect x="10" y="12" width="1" height="1" fill="#6c491a"/><rect x="20" y="12" width="1" height="1" fill="#6c491a"/><rect x="9" y="13" width="1" height="1" fill="#614217"/><rect x="10" y="13" width="1" height="1" fill="#6c491a"/><rect x="20" y="13" width="1" height="1" fill="#6c491a"/><rect x="10" y="14" width="1" height="1" fill="#6c491a"/><rect x="20" y="14" width="1" height="1" fill="#6c491a"/><rect x="10" y="15" width="1" height="1" fill="#6c491a"/><rect x="11" y="15" width="1" height="1" fill="#6c491a"/><rect x="19" y="15" width="1" height="1" fill="#6c491a"/><rect x="20" y="15" width="1" height="1" fill="#6c491a"/><rect x="11" y="16" width="1" height="1" fill="#6c491a"/><rect x="12" y="16" width="1" height="1" fill="#6c491a"/><rect x="13" y="16" width="1" height="1" fill="#6c491a"/><rect x="14" y="16" width="1" height="1" fill="#6c491a"/><rect x="15" y="16" width="1" height="1" fill="#6c491a"/><rect x="16" y="16" width="1" height="1" fill="#6c491a"/><rect x="17" y="16" width="1" height="1" fill="#6c491a"/><rect x="18" y="16" width="1" height="1" fill="#6c491a"/><rect x="19" y="16" width="1" height="1" fill="#6c491a"/></g></svg>