<svg shape-rendering="crispEdges" viewBox="0 0 30 30" fill="none" xmlns="http://www.w3.org/2000/svg"><style>rect{width:1px; height: 1px;} .bg{width:30px; height: 30px;} </style><g id="Trait"><rect x="12" y="6" width="1" height="1" fill="#5b2cb1"/><rect x="13" y="6" width="1" height="1" fill="#7036db"/><rect x="14" y="6" width="1" height="1" fill="#7036db"/><rect x="15" y="6" width="1" height="1" fill="#8741ff"/><rect x="16" y="6" width="1" height="1" fill="#8741ff"/><rect x="17" y="6" width="1" height="1" fill="#8741ff"/><rect x="11" y="7" width="1" height="1" fill="#ee349e"/><rect x="12" y="7" width="1" height="1" fill="#ee349e"/><rect x="13" y="7" width="1" height="1" fill="#5b2cb1"/><rect x="14" y="7" width="1" height="1" fill="#7036db"/><rect x="15" y="7" width="1" height="1" fill="#7036db"/><rect x="16" y="7" width="1" height="1" fill="#7036db"/><rect x="17" y="7" width="1" height="1" fill="#7036db"/><rect x="18" y="7" width="1" height="1" fill="#8741ff"/><rect x="10" y="8" width="1" height="1" fill="#ee349e"/><rect x="11" y="8" width="1" height="1" fill="#7036db"/><rect x="12" y="8" width="1" height="1" fill="#ee349e"/><rect x="13" y="8" width="1" height="1" fill="#ee349e"/><rect x="14" y="8" width="1" height="1" fill="#ee349e"/><rect x="15" y="8" width="1" height="1" fill="#ee349e"/><rect x="16" y="8" width="1" height="1" fill="#ee349e"/><rect x="17" y="8" width="1" height="1" fill="#ee349e"/><rect x="18" y="8" width="1" height="1" fill="#ee349e"/><rect x="9" y="9" width="1" height="1" fill="#5b2cb1"/><rect x="10" y="9" width="1" height="1" fill="#ee349e"/><rect x="11" y="9" width="1" height="1" fill="#ee349e"/><rect x="12" y="9" width="1" height="1" fill="#5b2cb1"/><rect x="13" y="9" width="1" height="1" fill="#7036db"/><rect x="14" y="9" width="1" height="1" fill="#7036db"/><rect x="15" y="9" width="1" height="1" fill="#7036db"/><rect x="16" y="9" width="1" height="1" fill="#7036db"/><rect x="17" y="9" width="1" height="1" fill="#8741ff"/><rect x="18" y="9" width="1" height="1" fill="#8741ff"/><rect x="19" y="9" width="1" height="1" fill="#8741ff"/><rect x="20" y="9" width="1" height="1" fill="#8741ff"/><rect x="8" y="10" width="1" height="1" fill="#5b2cb1"/><rect x="9" y="10" width="1" height="1" fill="#5b2cb1"/><rect x="10" y="10" width="1" height="1" fill="#5b2cb1"/><rect x="11" y="10" width="1" height="1" fill="#5b2cb1"/><rect x="12" y="10" width="1" height="1" fill="#5b2cb1"/><rect x="13" y="10" width="1" height="1" fill="#5b2cb1"/><rect x="14" y="10" width="1" height="1" fill="#5b2cb1"/><rect x="15" y="10" width="1" height="1" fill="#7036db"/><rect x="16" y="10" width="1" height="1" fill="#7036db"/><rect x="17" y="10" width="1" height="1" fill="#7036db"/><rect x="18" y="10" width="1" height="1" fill="#7036db"/><rect x="19" y="10" width="1" height="1" fill="#7036db"/><rect x="20" y="10" width="1" height="1" fill="#7036db"/><rect x="21" y="10" width="1" height="1" fill="#8741ff"/></g></svg>