<svg shape-rendering="crispEdges" viewBox="0 0 30 30" fill="none" xmlns="http://www.w3.org/2000/svg"><style>rect{width:1px; height: 1px;} .bg{width:30px; height: 30px;} </style><g id="Trait"><rect x="21" y="18" width="1" height="1" fill="#00d7f1"/><rect x="22" y="18" width="1" height="1" fill="#00d7f1"/><rect x="23" y="18" width="1" height="1" fill="#00d7f1"/><rect x="24" y="18" width="1" height="1" fill="#00d7f1"/><rect x="22" y="19" width="1" height="1" fill="#ffc81c"/><rect x="23" y="19" width="1" height="1" fill="#2a383b"/><rect x="24" y="19" width="1" height="1" fill="#00d7f1"/><rect x="25" y="19" width="1" height="1" fill="#f3731e"/><rect x="22" y="20" width="1" height="1" fill="#fff2cc"/><rect x="23" y="20" width="1" height="1" fill="#00d7f1"/><rect x="24" y="20" width="1" height="1" fill="#00d7f1"/><rect x="22" y="21" width="1" height="1" fill="#00d7f1"/><rect x="23" y="21" width="1" height="1" fill="#ffc81c"/><rect x="24" y="21" width="1" height="1" fill="#ffc81c"/><rect x="21" y="22" width="1" height="1" fill="#00d7f1"/><rect x="22" y="22" width="1" height="1" fill="#00d7f1"/><rect x="23" y="22" width="1" height="1" fill="#ffc81c"/><rect x="24" y="22" width="1" height="1" fill="#ffc81c"/><rect x="22" y="23" width="1" height="1" fill="#f3731e"/><rect x="24" y="23" width="1" height="1" fill="#f3731e"/></g></svg>