<svg shape-rendering="crispEdges" viewBox="0 0 30 30" fill="none" xmlns="http://www.w3.org/2000/svg"><style>rect{width:1px; height: 1px;} .bg{width:30px; height: 30px;} </style><g id="Trait"><rect x="23" y="18" width="1" height="1" fill="#e04400"/><rect x="24" y="18" width="1" height="1" fill="#e04400"/><rect x="25" y="18" width="1" height="1" fill="#e04400"/><rect x="24" y="19" width="1" height="1" fill="#faab0b"/><rect x="25" y="19" width="1" height="1" fill="#faab0b"/><rect x="26" y="19" width="1" height="1" fill="#ffce0a"/><rect x="27" y="19" width="1" height="1" fill="#ffce0a"/><rect x="21" y="20" width="1" height="1" fill="#00993a"/><rect x="22" y="20" width="1" height="1" fill="#00993a"/><rect x="24" y="20" width="1" height="1" fill="#faab0b"/><rect x="25" y="20" width="1" height="1" fill="#faab0b"/><rect x="26" y="20" width="1" height="1" fill="#e04400"/><rect x="22" y="21" width="1" height="1" fill="#00993a"/><rect x="24" y="21" width="1" height="1" fill="#a15300"/><rect x="25" y="21" width="1" height="1" fill="#a15300"/><rect x="23" y="22" width="1" height="1" fill="#00993a"/><rect x="24" y="22" width="1" height="1" fill="#a15300"/><rect x="25" y="22" width="1" height="1" fill="#a15300"/><rect x="24" y="23" width="1" height="1" fill="#5d4002"/></g></svg>