<svg shape-rendering="crispEdges" viewBox="0 0 30 30" fill="none" xmlns="http://www.w3.org/2000/svg"><style>rect{width:1px; height: 1px;} .bg{width:30px; height: 30px;} </style><g id="Trait"><rect x="21" y="18" width="1" height="1" fill="#484d5d"/><rect x="22" y="18" width="1" height="1" fill="#484d5d"/><rect x="21" y="19" width="1" height="1" fill="#484d5d"/><rect x="22" y="19" width="1" height="1" fill="#191919"/><rect x="23" y="19" width="1" height="1" fill="#484d5d"/><rect x="24" y="19" width="1" height="1" fill="#ec831c"/><rect x="21" y="20" width="1" height="1" fill="#484d5d"/><rect x="22" y="20" width="1" height="1" fill="#bcc5e9"/><rect x="23" y="20" width="1" height="1" fill="#bcc5e9"/><rect x="21" y="21" width="1" height="1" fill="#484d5d"/><rect x="22" y="21" width="1" height="1" fill="#bcc5e9"/><rect x="23" y="21" width="1" height="1" fill="#bcc5e9"/><rect x="21" y="22" width="1" height="1" fill="#484d5d"/><rect x="22" y="22" width="1" height="1" fill="#bcc5e9"/><rect x="23" y="22" width="1" height="1" fill="#bcc5e9"/><rect x="21" y="23" width="1" height="1" fill="#ec831c"/><rect x="23" y="23" width="1" height="1" fill="#ec831c"/></g></svg>