<svg shape-rendering="crispEdges" viewBox="0 0 30 30" fill="none" xmlns="http://www.w3.org/2000/svg"><style>rect{width:1px; height: 1px;} .bg{width:30px; height: 30px;} </style><g id="Trait"><rect x="8" y="20" width="1" height="1" fill="#d4001b"/><rect x="8" y="21" width="1" height="1" fill="#d4001b"/><rect x="9" y="21" width="1" height="1" fill="#b40017"/><rect x="10" y="21" width="1" height="1" fill="#b40017"/><rect x="18" y="21" width="1" height="1" fill="#b40017"/><rect x="7" y="22" width="1" height="1" fill="#d4001b"/><rect x="8" y="22" width="1" height="1" fill="#b40017"/><rect x="9" y="22" width="1" height="1" fill="#b40017"/><rect x="10" y="22" width="1" height="1" fill="#b40017"/><rect x="14" y="22" width="1" height="1" fill="#b40017"/><rect x="18" y="22" width="1" height="1" fill="#b40017"/><rect x="5" y="23" width="1" height="1" fill="#d4001b"/><rect x="6" y="23" width="1" height="1" fill="#d4001b"/><rect x="7" y="23" width="1" height="1" fill="#b40017"/><rect x="8" y="23" width="1" height="1" fill="#b40017"/><rect x="9" y="23" width="1" height="1" fill="#b40017"/><rect x="10" y="23" width="1" height="1" fill="#b40017"/><rect x="13" y="23" width="1" height="1" fill="#b40017"/><rect x="14" y="23" width="1" height="1" fill="#b40017"/><rect x="15" y="23" width="1" height="1" fill="#b40017"/></g></svg>