<svg shape-rendering="crispEdges" viewBox="0 0 30 30" fill="none" xmlns="http://www.w3.org/2000/svg"><style>rect{width:1px; height: 1px;} .bg{width:30px; height: 30px;} </style><g id="Trait"><rect x="21" y="18" width="1" height="1" fill="#15b137"/><rect x="22" y="18" width="1" height="1" fill="#0fca37"/><rect x="23" y="18" width="1" height="1" fill="#15b137"/><rect x="20" y="19" width="1" height="1" fill="#0fca37"/><rect x="21" y="19" width="1" height="1" fill="#622253"/><rect x="22" y="19" width="1" height="1" fill="#bd339c"/><rect x="23" y="19" width="1" height="1" fill="#622253"/><rect x="24" y="19" width="1" height="1" fill="#0fca37"/><rect x="20" y="20" width="1" height="1" fill="#bd339c"/><rect x="21" y="20" width="1" height="1" fill="#d051b2"/><rect x="22" y="20" width="1" height="1" fill="#622253"/><rect x="23" y="20" width="1" height="1" fill="#d051b2"/><rect x="24" y="20" width="1" height="1" fill="#d051b2"/><rect x="21" y="21" width="1" height="1" fill="#bd339c"/><rect x="22" y="21" width="1" height="1" fill="#d051b2"/><rect x="23" y="21" width="1" height="1" fill="#d051b2"/><rect x="22" y="22" width="1" height="1" fill="#bd339c"/></g></svg>