<svg shape-rendering="crispEdges" viewBox="0 0 30 30" fill="none" xmlns="http://www.w3.org/2000/svg"><style>rect{width:1px; height: 1px;} .bg{width:30px; height: 30px;} </style><g id="Trait"><rect x="26" y="13" width="1" height="1" fill="#6aff5f"/><rect x="27" y="13" width="1" height="1" fill="#11ff00"/><rect x="25" y="14" width="1" height="1" fill="#6aff5f"/><rect x="26" y="14" width="1" height="1" fill="#11ff00"/><rect x="24" y="15" width="1" height="1" fill="#6aff5f"/><rect x="25" y="15" width="1" height="1" fill="#11ff00"/><rect x="23" y="16" width="1" height="1" fill="#6aff5f"/><rect x="24" y="16" width="1" height="1" fill="#11ff00"/><rect x="22" y="17" width="1" height="1" fill="#6aff5f"/><rect x="23" y="17" width="1" height="1" fill="#11ff00"/><rect x="21" y="18" width="1" height="1" fill="#6aff5f"/><rect x="22" y="18" width="1" height="1" fill="#11ff00"/><rect x="20" y="19" width="1" height="1" fill="#000000"/><rect x="21" y="19" width="1" height="1" fill="#000000"/><rect x="20" y="20" width="1" height="1" fill="#000000"/><rect x="19" y="21" width="1" height="1" fill="#000000"/></g></svg>