<svg shape-rendering="crispEdges" viewBox="0 0 30 30" fill="none" xmlns="http://www.w3.org/2000/svg"><style>rect{width:1px; height: 1px;} .bg{width:30px; height: 30px;} </style><g id="Trait"><rect x="11" y="7" width="1" height="1" fill="#29d8ae"/><rect x="12" y="7" width="1" height="1" fill="#29d8ae"/><rect x="13" y="7" width="1" height="1" fill="#29d8ae"/><rect x="14" y="7" width="1" height="1" fill="#4ee5c3"/><rect x="15" y="7" width="1" height="1" fill="#4ee5c3"/><rect x="16" y="7" width="1" height="1" fill="#4ee5c3"/><rect x="17" y="7" width="1" height="1" fill="#4ee5c3"/><rect x="10" y="8" width="1" height="1" fill="#29d8ae"/><rect x="11" y="8" width="1" height="1" fill="#29d8ae"/><rect x="12" y="8" width="1" height="1" fill="#29d8ae"/><rect x="13" y="8" width="1" height="1" fill="#29d8ae"/><rect x="14" y="8" width="1" height="1" fill="#29d8ae"/><rect x="15" y="8" width="1" height="1" fill="#29d8ae"/><rect x="16" y="8" width="1" height="1" fill="#29d8ae"/><rect x="17" y="8" width="1" height="1" fill="#29d8ae"/><rect x="18" y="8" width="1" height="1" fill="#4ee5c3"/><rect x="9" y="9" width="1" height="1" fill="#29d8ae"/><rect x="10" y="9" width="1" height="1" fill="#29d8ae"/><rect x="11" y="9" width="1" height="1" fill="#29d8ae"/><rect x="12" y="9" width="1" height="1" fill="#0dbe93"/><rect x="13" y="9" width="1" height="1" fill="#29d8ae"/><rect x="14" y="9" width="1" height="1" fill="#29d8ae"/><rect x="15" y="9" width="1" height="1" fill="#29d8ae"/><rect x="16" y="9" width="1" height="1" fill="#29d8ae"/><rect x="17" y="9" width="1" height="1" fill="#29d8ae"/><rect x="18" y="9" width="1" height="1" fill="#29d8ae"/><rect x="19" y="9" width="1" height="1" fill="#4ee5c3"/><rect x="9" y="10" width="1" height="1" fill="#29d8ae"/><rect x="10" y="10" width="1" height="1" fill="#29d8ae"/><rect x="11" y="10" width="1" height="1" fill="#0dbe93"/><rect x="12" y="10" width="1" height="1" fill="#29d8ae"/><rect x="13" y="10" width="1" height="1" fill="#0dbe93"/><rect x="14" y="10" width="1" height="1" fill="#0dbe93"/><rect x="19" y="10" width="1" height="1" fill="#29d8ae"/><rect x="9" y="11" width="1" height="1" fill="#29d8ae"/><rect x="10" y="11" width="1" height="1" fill="#0dbe93"/><rect x="11" y="11" width="1" height="1" fill="#29d8ae"/><rect x="12" y="11" width="1" height="1" fill="#0dbe93"/><rect x="9" y="12" width="1" height="1" fill="#2d8dcb"/><rect x="10" y="12" width="1" height="1" fill="#0dbe93"/><rect x="11" y="12" width="1" height="1" fill="#0dbe93"/><rect x="8" y="13" width="1" height="1" fill="#4ee5c3"/><rect x="9" y="13" width="1" height="1" fill="#29d8ae"/><rect x="10" y="13" width="1" height="1" fill="#2d8dcb"/><rect x="8" y="14" width="1" height="1" fill="#4ee5c3"/><rect x="9" y="14" width="1" height="1" fill="#29d8ae"/><rect x="10" y="14" width="1" height="1" fill="#0dbe93"/><rect x="8" y="15" width="1" height="1" fill="#29d8ae"/><rect x="9" y="15" width="1" height="1" fill="#29d8ae"/><rect x="10" y="15" width="1" height="1" fill="#0dbe93"/><rect x="9" y="16" width="1" height="1" fill="#29d8ae"/><rect x="10" y="16" width="1" height="1" fill="#0dbe93"/><rect x="9" y="17" width="1" height="1" fill="#29d8ae"/></g></svg>