<svg shape-rendering="crispEdges" viewBox="0 0 30 30" fill="none" xmlns="http://www.w3.org/2000/svg"><style>rect{width:1px; height: 1px;} .bg{width:30px; height: 30px;} </style><g id="Trait"><rect x="13" y="3" width="1" height="1" fill="#75542d"/><rect x="14" y="3" width="1" height="1" fill="#75542d"/><rect x="15" y="3" width="1" height="1" fill="#75542d"/><rect x="16" y="3" width="1" height="1" fill="#75542d"/><rect x="12" y="4" width="1" height="1" fill="#5f4425"/><rect x="13" y="4" width="1" height="1" fill="#75542d"/><rect x="14" y="4" width="1" height="1" fill="#75542d"/><rect x="15" y="4" width="1" height="1" fill="#75542d"/><rect x="16" y="4" width="1" height="1" fill="#75542d"/><rect x="17" y="4" width="1" height="1" fill="#75542d"/><rect x="12" y="5" width="1" height="1" fill="#5f4425"/><rect x="13" y="5" width="1" height="1" fill="#75542d"/><rect x="14" y="5" width="1" height="1" fill="#75542d"/><rect x="15" y="5" width="1" height="1" fill="#75542d"/><rect x="16" y="5" width="1" height="1" fill="#75542d"/><rect x="17" y="5" width="1" height="1" fill="#75542d"/><rect x="12" y="6" width="1" height="1" fill="#5f4425"/><rect x="13" y="6" width="1" height="1" fill="#5f4425"/><rect x="14" y="6" width="1" height="1" fill="#75542d"/><rect x="15" y="6" width="1" height="1" fill="#75542d"/><rect x="16" y="6" width="1" height="1" fill="#75542d"/><rect x="17" y="6" width="1" height="1" fill="#75542d"/><rect x="13" y="7" width="1" height="1" fill="#bec10b"/><rect x="14" y="7" width="1" height="1" fill="#bec10b"/><rect x="15" y="7" width="1" height="1" fill="#bec10b"/><rect x="16" y="7" width="1" height="1" fill="#bec10b"/><rect x="11" y="8" width="1" height="1" fill="#75542d"/><rect x="12" y="8" width="1" height="1" fill="#75542d"/><rect x="13" y="8" width="1" height="1" fill="#75542d"/><rect x="14" y="8" width="1" height="1" fill="#75542d"/><rect x="15" y="8" width="1" height="1" fill="#75542d"/><rect x="16" y="8" width="1" height="1" fill="#75542d"/><rect x="17" y="8" width="1" height="1" fill="#75542d"/><rect x="10" y="9" width="1" height="1" fill="#75542d"/><rect x="11" y="9" width="1" height="1" fill="#75542d"/><rect x="12" y="9" width="1" height="1" fill="#5f4425"/><rect x="13" y="9" width="1" height="1" fill="#5f4425"/><rect x="14" y="9" width="1" height="1" fill="#5f4425"/><rect x="15" y="9" width="1" height="1" fill="#75542d"/><rect x="16" y="9" width="1" height="1" fill="#75542d"/><rect x="17" y="9" width="1" height="1" fill="#75542d"/><rect x="18" y="9" width="1" height="1" fill="#75542d"/><rect x="9" y="10" width="1" height="1" fill="#75542d"/><rect x="10" y="10" width="1" height="1" fill="#75542d"/><rect x="11" y="10" width="1" height="1" fill="#5f4425"/><rect x="19" y="10" width="1" height="1" fill="#75542d"/><rect x="9" y="11" width="1" height="1" fill="#75542d"/><rect x="10" y="11" width="1" height="1" fill="#5f4425"/><rect x="20" y="11" width="1" height="1" fill="#75542d"/><rect x="9" y="12" width="1" height="1" fill="#5f4425"/><rect x="20" y="12" width="1" height="1" fill="#75542d"/><rect x="9" y="13" width="1" height="1" fill="#5f4425"/></g></svg>