<svg shape-rendering="crispEdges" viewBox="0 0 30 30" fill="none" xmlns="http://www.w3.org/2000/svg"><style>rect{width:1px; height: 1px;} .bg{width:30px; height: 30px;} </style><g id="Trait"><rect x="22" y="6" width="1" height="1" fill="#c50a0a"/><rect x="23" y="6" width="1" height="1" fill="#c50a0a"/><rect x="24" y="6" width="1" height="1" fill="#c50a0a"/><rect x="25" y="6" width="1" height="1" fill="#c50a0a"/><rect x="21" y="7" width="1" height="1" fill="#c50a0a"/><rect x="22" y="7" width="1" height="1" fill="#c50a0a"/><rect x="23" y="7" width="1" height="1" fill="#c50a0a"/><rect x="24" y="7" width="1" height="1" fill="#d34444"/><rect x="25" y="7" width="1" height="1" fill="#c50a0a"/><rect x="26" y="7" width="1" height="1" fill="#c50a0a"/><rect x="21" y="8" width="1" height="1" fill="#c50a0a"/><rect x="22" y="8" width="1" height="1" fill="#c50a0a"/><rect x="23" y="8" width="1" height="1" fill="#c50a0a"/><rect x="24" y="8" width="1" height="1" fill="#c50a0a"/><rect x="25" y="8" width="1" height="1" fill="#d34444"/><rect x="26" y="8" width="1" height="1" fill="#c50a0a"/><rect x="21" y="9" width="1" height="1" fill="#c50a0a"/><rect x="22" y="9" width="1" height="1" fill="#c50a0a"/><rect x="23" y="9" width="1" height="1" fill="#c50a0a"/><rect x="24" y="9" width="1" height="1" fill="#c50a0a"/><rect x="25" y="9" width="1" height="1" fill="#d34444"/><rect x="26" y="9" width="1" height="1" fill="#c50a0a"/><rect x="21" y="10" width="1" height="1" fill="#c50a0a"/><rect x="22" y="10" width="1" height="1" fill="#c50a0a"/><rect x="23" y="10" width="1" height="1" fill="#c50a0a"/><rect x="24" y="10" width="1" height="1" fill="#c50a0a"/><rect x="25" y="10" width="1" height="1" fill="#c50a0a"/><rect x="26" y="10" width="1" height="1" fill="#c50a0a"/><rect x="22" y="11" width="1" height="1" fill="#c50a0a"/><rect x="23" y="11" width="1" height="1" fill="#c50a0a"/><rect x="24" y="11" width="1" height="1" fill="#c50a0a"/><rect x="25" y="11" width="1" height="1" fill="#c50a0a"/><rect x="23" y="12" width="1" height="1" fill="#c50a0a"/><rect x="24" y="12" width="1" height="1" fill="#c50a0a"/><rect x="23" y="13" width="1" height="1" fill="#e2e2e2"/><rect x="22" y="14" width="1" height="1" fill="#e2e2e2"/><rect x="22" y="15" width="1" height="1" fill="#e2e2e2"/><rect x="23" y="16" width="1" height="1" fill="#e2e2e2"/><rect x="24" y="17" width="1" height="1" fill="#e2e2e2"/><rect x="24" y="18" width="1" height="1" fill="#e2e2e2"/><rect x="22" y="19" width="1" height="1" fill="#e2e2e2"/><rect x="23" y="19" width="1" height="1" fill="#e2e2e2"/><rect x="20" y="20" width="1" height="1" fill="#e2e2e2"/><rect x="21" y="20" width="1" height="1" fill="#e2e2e2"/></g></svg>