<svg shape-rendering="crispEdges" viewBox="0 0 30 30" fill="none" xmlns="http://www.w3.org/2000/svg"><style>rect{width:1px; height: 1px;} .bg{width:30px; height: 30px;} </style><g id="Trait"><rect x="12" y="11" width="1" height="1" fill="#5114b2"/><rect x="13" y="11" width="1" height="1" fill="#5114b2"/><rect x="17" y="11" width="1" height="1" fill="#5114b2"/><rect x="18" y="11" width="1" height="1" fill="#5114b2"/><rect x="9" y="12" width="1" height="1" fill="#5114b2"/><rect x="10" y="12" width="1" height="1" fill="#5114b2"/><rect x="11" y="12" width="1" height="1" fill="#5114b2"/><rect x="12" y="12" width="1" height="1" fill="#7a1eff"/><rect x="13" y="12" width="1" height="1" fill="#9c2dff"/><rect x="14" y="12" width="1" height="1" fill="#5114b2"/><rect x="15" y="12" width="1" height="1" fill="#5114b2"/><rect x="16" y="12" width="1" height="1" fill="#5114b2"/><rect x="17" y="12" width="1" height="1" fill="#7a1eff"/><rect x="18" y="12" width="1" height="1" fill="#9c2dff"/><rect x="19" y="12" width="1" height="1" fill="#5114b2"/><rect x="11" y="13" width="1" height="1" fill="#5114b2"/><rect x="12" y="13" width="1" height="1" fill="#9c2dff"/><rect x="13" y="13" width="1" height="1" fill="#7a1eff"/><rect x="14" y="13" width="1" height="1" fill="#5114b2"/><rect x="16" y="13" width="1" height="1" fill="#5114b2"/><rect x="17" y="13" width="1" height="1" fill="#9c2dff"/><rect x="18" y="13" width="1" height="1" fill="#7a1eff"/><rect x="19" y="13" width="1" height="1" fill="#5114b2"/><rect x="12" y="14" width="1" height="1" fill="#5114b2"/><rect x="13" y="14" width="1" height="1" fill="#5114b2"/><rect x="17" y="14" width="1" height="1" fill="#5114b2"/><rect x="18" y="14" width="1" height="1" fill="#5114b2"/></g></svg>