<svg shape-rendering="crispEdges" viewBox="0 0 30 30" fill="none" xmlns="http://www.w3.org/2000/svg"><style>rect{width:1px; height: 1px;} .bg{width:30px; height: 30px;} </style><g id="Trait"><rect x="22" y="12" width="1" height="1" fill="#533900"/><rect x="23" y="12" width="1" height="1" fill="#ffffff"/><rect x="22" y="13" width="1" height="1" fill="#533900"/><rect x="24" y="13" width="1" height="1" fill="#ffffff"/><rect x="22" y="14" width="1" height="1" fill="#533900"/><rect x="24" y="14" width="1" height="1" fill="#ffffff"/><rect x="21" y="15" width="1" height="1" fill="#533900"/><rect x="24" y="15" width="1" height="1" fill="#ffffff"/><rect x="21" y="16" width="1" height="1" fill="#533900"/><rect x="24" y="16" width="1" height="1" fill="#ffffff"/><rect x="21" y="17" width="1" height="1" fill="#533900"/><rect x="24" y="17" width="1" height="1" fill="#ffffff"/><rect x="20" y="18" width="1" height="1" fill="#533900"/><rect x="24" y="18" width="1" height="1" fill="#cb7d00"/><rect x="20" y="19" width="1" height="1" fill="#533900"/><rect x="23" y="19" width="1" height="1" fill="#cb7d00"/><rect x="24" y="19" width="1" height="1" fill="#574f43"/><rect x="25" y="19" width="1" height="1" fill="#e38e05"/><rect x="20" y="20" width="1" height="1" fill="#533900"/><rect x="23" y="20" width="1" height="1" fill="#cb7d00"/><rect x="24" y="20" width="1" height="1" fill="#e38e05"/><rect x="25" y="20" width="1" height="1" fill="#e38e05"/><rect x="19" y="21" width="1" height="1" fill="#533900"/><rect x="23" y="21" width="1" height="1" fill="#cb7d00"/><rect x="24" y="21" width="1" height="1" fill="#e38e05"/><rect x="25" y="21" width="1" height="1" fill="#e38e05"/><rect x="19" y="22" width="1" height="1" fill="#533900"/><rect x="24" y="22" width="1" height="1" fill="#cb7d00"/><rect x="19" y="23" width="1" height="1" fill="#533900"/><rect x="23" y="23" width="1" height="1" fill="#cb7d00"/><rect x="25" y="23" width="1" height="1" fill="#cb7d00"/></g></svg>