<svg shape-rendering="crispEdges" viewBox="0 0 30 30" fill="none" xmlns="http://www.w3.org/2000/svg"><style>rect{width:1px; height: 1px;} .bg{width:30px; height: 30px;} </style><g id="Trait"><rect x="11" y="17" width="1" height="1" fill="#da98dc"/><rect x="17" y="17" width="1" height="1" fill="#da98dc"/><rect x="11" y="18" width="1" height="1" fill="#da98dc"/><rect x="12" y="18" width="1" height="1" fill="#da98dc"/><rect x="13" y="18" width="1" height="1" fill="#da98dc"/><rect x="15" y="18" width="1" height="1" fill="#da98dc"/><rect x="16" y="18" width="1" height="1" fill="#da98dc"/><rect x="17" y="18" width="1" height="1" fill="#da98dc"/><rect x="11" y="19" width="1" height="1" fill="#da98dc"/><rect x="12" y="19" width="1" height="1" fill="#da98dc"/><rect x="13" y="19" width="1" height="1" fill="#da98dc"/><rect x="14" y="19" width="1" height="1" fill="#da98dc"/><rect x="15" y="19" width="1" height="1" fill="#da98dc"/><rect x="16" y="19" width="1" height="1" fill="#da98dc"/><rect x="17" y="19" width="1" height="1" fill="#da98dc"/></g></svg>