<svg shape-rendering="crispEdges" viewBox="0 0 30 30" fill="none" xmlns="http://www.w3.org/2000/svg"><style>rect{width:1px; height: 1px;} .bg{width:30px; height: 30px;} </style><g id="Trait"><rect x="11" y="20" width="1" height="1" fill="#daddaa"/><rect x="12" y="20" width="1" height="1" fill="#c94fe4"/><rect x="13" y="20" width="1" height="1" fill="#daddaa"/><rect x="14" y="20" width="1" height="1" fill="#57b1e6"/><rect x="15" y="20" width="1" height="1" fill="#c94fe4"/><rect x="16" y="20" width="1" height="1" fill="#daddaa"/><rect x="17" y="20" width="1" height="1" fill="#57b1e6"/><rect x="11" y="21" width="1" height="1" fill="#c94fe4"/><rect x="12" y="21" width="1" height="1" fill="#57b1e6"/><rect x="13" y="21" width="1" height="1" fill="#c94fe4"/><rect x="14" y="21" width="1" height="1" fill="#daddaa"/><rect x="15" y="21" width="1" height="1" fill="#3a8ed5"/><rect x="16" y="21" width="1" height="1" fill="#3fc5a8"/><rect x="17" y="21" width="1" height="1" fill="#c94fe4"/><rect x="10" y="22" width="1" height="1" fill="#57b1e6"/><rect x="11" y="22" width="1" height="1" fill="#3fc5a8"/><rect x="12" y="22" width="1" height="1" fill="#c94fe4"/><rect x="13" y="22" width="1" height="1" fill="#57b1e6"/><rect x="14" y="22" width="1" height="1" fill="#c94fe4"/><rect x="15" y="22" width="1" height="1" fill="#3fc5a8"/><rect x="16" y="22" width="1" height="1" fill="#c94fe4"/><rect x="17" y="22" width="1" height="1" fill="#3a8ed5"/><rect x="18" y="22" width="1" height="1" fill="#3fc5a8"/><rect x="9" y="23" width="1" height="1" fill="#3a8ed5"/><rect x="10" y="23" width="1" height="1" fill="#d7d8a9"/><rect x="11" y="23" width="1" height="1" fill="#c94fe4"/><rect x="12" y="23" width="1" height="1" fill="#57b1e6"/><rect x="13" y="23" width="1" height="1" fill="#3a8ed5"/><rect x="14" y="23" width="1" height="1" fill="#3fc5a8"/><rect x="15" y="23" width="1" height="1" fill="#3a8ed5"/><rect x="16" y="23" width="1" height="1" fill="#daddaa"/><rect x="17" y="23" width="1" height="1" fill="#3fc5a8"/><rect x="18" y="23" width="1" height="1" fill="#c94fe4"/><rect x="19" y="23" width="1" height="1" fill="#daddaa"/></g></svg>