<svg shape-rendering="crispEdges" viewBox="0 0 30 30" fill="none" xmlns="http://www.w3.org/2000/svg"><style> body{overflow: hidden; margin: 0;} svg{ max-width: 100vw; max-height: 100vh; width: 100%;} #main rect{width:1px; height: 1px;} .bg{width:30px; height: 30px;} .on { scale: 177%; transform: translate(-6px, -3px); } .off { scale: 100%; transform: translate(0px, 0px); } .button { cursor: pointer; fill: transparent; } .closed{ transform: translate(0px, 30px); } .open{ transform: translate(0px, 0px); } </style><style>body, svg{ background: #0D6E9D; }.bg { fill: #0D6E9D; }</style><rect class="bg"/><g id="main" class="off"><g id="Body"><rect x="11" y="9" width="1" height="1" fill="#8a5e24"/><rect x="12" y="9" width="1" height="1" fill="#8a5e24"/><rect x="13" y="9" width="1" height="1" fill="#8a5e24"/><rect x="14" y="9" width="1" height="1" fill="#8a5e24"/><rect x="15" y="9" width="1" height="1" fill="#8a5e24"/><rect x="16" y="9" width="1" height="1" fill="#8a5e24"/><rect x="17" y="9" width="1" height="1" fill="#8a5e24"/><rect x="18" y="9" width="1" height="1" fill="#8a5e24"/><rect x="10" y="10" width="1" height="1" fill="#8a5e24"/><rect x="11" y="10" width="1" height="1" fill="#8a5e24"/><rect x="12" y="10" width="1" height="1" fill="#8a5e24"/><rect x="13" y="10" width="1" height="1" fill="#8a5e24"/><rect x="14" y="10" width="1" height="1" fill="#8a5e24"/><rect x="15" y="10" width="1" height="1" fill="#8a5e24"/><rect x="16" y="10" width="1" height="1" fill="#8a5e24"/><rect x="17" y="10" width="1" height="1" fill="#8a5e24"/><rect x="18" y="10" width="1" height="1" fill="#8a5e24"/><rect x="19" y="10" width="1" height="1" fill="#8a5e24"/><rect x="10" y="11" width="1" height="1" fill="#8a5e24"/><rect x="11" y="11" width="1" height="1" fill="#8a5e24"/><rect x="12" y="11" width="1" height="1" fill="#8a5e24"/><rect x="13" y="11" width="1" height="1" fill="#8a5e24"/><rect x="14" y="11" width="1" height="1" fill="#8a5e24"/><rect x="15" y="11" width="1" height="1" fill="#8a5e24"/><rect x="16" y="11" width="1" height="1" fill="#8a5e24"/><rect x="17" y="11" width="1" height="1" fill="#8a5e24"/><rect x="18" y="11" width="1" height="1" fill="#8a5e24"/><rect x="19" y="11" width="1" height="1" fill="#8a5e24"/><rect x="9" y="12" width="1" height="1" fill="#77511e"/><rect x="10" y="12" width="1" height="1" fill="#8a5e24"/><rect x="11" y="12" width="1" height="1" fill="#8a5e24"/><rect x="12" y="12" width="1" height="1" fill="#ffffff"/><rect x="13" y="12" width="1" height="1" fill="#000000"/><rect x="14" y="12" width="1" height="1" fill="#8a5e24"/><rect x="15" y="12" width="1" height="1" fill="#8a5e24"/><rect x="16" y="12" width="1" height="1" fill="#8a5e24"/><rect x="17" y="12" width="1" height="1" fill="#ffffff"/><rect x="18" y="12" width="1" height="1" fill="#000000"/><rect x="19" y="12" width="1" height="1" fill="#8a5e24"/><rect x="9" y="13" width="1" height="1" fill="#77511e"/><rect x="10" y="13" width="1" height="1" fill="#8a5e24"/><rect x="11" y="13" width="1" height="1" fill="#8a5e24"/><rect x="12" y="13" width="1" height="1" fill="#ffffff"/><rect x="13" y="13" width="1" height="1" fill="#000000"/><rect x="14" y="13" width="1" height="1" fill="#77511e"/><rect x="15" y="13" width="1" height="1" fill="#77511e"/><rect x="16" y="13" width="1" height="1" fill="#77511e"/><rect x="17" y="13" width="1" height="1" fill="#ffffff"/><rect x="18" y="13" width="1" height="1" fill="#000000"/><rect x="19" y="13" width="1" height="1" fill="#8a5e24"/><rect x="10" y="14" width="1" height="1" fill="#8a5e24"/><rect x="11" y="14" width="1" height="1" fill="#8a5e24"/><rect x="12" y="14" width="1" height="1" fill="#8a5e24"/><rect x="13" y="14" width="1" height="1" fill="#8a5e24"/><rect x="14" y="14" width="1" height="1" fill="#8a5e24"/><rect x="15" y="14" width="1" height="1" fill="#8a5e24"/><rect x="16" y="14" width="1" height="1" fill="#8a5e24"/><rect x="17" y="14" width="1" height="1" fill="#8a5e24"/><rect x="18" y="14" width="1" height="1" fill="#8a5e24"/><rect x="19" y="14" width="1" height="1" fill="#8a5e24"/><rect x="11" y="15" width="1" height="1" fill="#8a5e24"/><rect x="12" y="15" width="1" height="1" fill="#8a5e24"/><rect x="13" y="15" width="1" height="1" fill="#8a5e24"/><rect x="14" y="15" width="1" height="1" fill="#8a5e24"/><rect x="15" y="15" width="1" height="1" fill="#8a5e24"/><rect x="16" y="15" width="1" height="1" fill="#8a5e24"/><rect x="17" y="15" width="1" height="1" fill="#8a5e24"/><rect x="18" y="15" width="1" height="1" fill="#8a5e24"/><rect x="11" y="16" width="1" height="1" fill="#77511e"/><rect x="12" y="16" width="1" height="1" fill="#77511e"/><rect x="13" y="16" width="1" height="1" fill="#77511e"/><rect x="14" y="16" width="1" height="1" fill="#77511e"/><rect x="15" y="16" width="1" height="1" fill="#77511e"/><rect x="16" y="16" width="1" height="1" fill="#77511e"/><rect x="17" y="16" width="1" height="1" fill="#77511e"/><rect x="10" y="17" width="1" height="1" fill="#8a5e24"/><rect x="11" y="17" width="1" height="1" fill="#8a5e24"/><rect x="12" y="17" width="1" height="1" fill="#8a5e24"/><rect x="13" y="17" width="1" height="1" fill="#8a5e24"/><rect x="14" y="17" width="1" height="1" fill="#8a5e24"/><rect x="15" y="17" width="1" height="1" fill="#8a5e24"/><rect x="16" y="17" width="1" height="1" fill="#8a5e24"/><rect x="17" y="17" width="1" height="1" fill="#8a5e24"/><rect x="18" y="17" width="1" height="1" fill="#8a5e24"/><rect x="9" y="18" width="1" height="1" fill="#8a5e24"/><rect x="10" y="18" width="1" height="1" fill="#8a5e24"/><rect x="11" y="18" width="1" height="1" fill="#8a5e24"/><rect x="12" y="18" width="1" height="1" fill="#77511e"/><rect x="13" y="18" width="1" height="1" fill="#8a5e24"/><rect x="14" y="18" width="1" height="1" fill="#8a5e24"/><rect x="15" y="18" width="1" height="1" fill="#8a5e24"/><rect x="16" y="18" width="1" height="1" fill="#77511e"/><rect x="17" y="18" width="1" height="1" fill="#8a5e24"/><rect x="18" y="18" width="1" height="1" fill="#8a5e24"/><rect x="19" y="18" width="1" height="1" fill="#8a5e24"/><rect x="9" y="19" width="1" height="1" fill="#8a5e24"/><rect x="10" y="19" width="1" height="1" fill="#77511e"/><rect x="11" y="19" width="1" height="1" fill="#8a5e24"/><rect x="12" y="19" width="1" height="1" fill="#8a5e24"/><rect x="13" y="19" width="1" height="1" fill="#8a5e24"/><rect x="14" y="19" width="1" height="1" fill="#8a5e24"/><rect x="15" y="19" width="1" height="1" fill="#8a5e24"/><rect x="16" y="19" width="1" height="1" fill="#8a5e24"/><rect x="17" y="19" width="1" height="1" fill="#8a5e24"/><rect x="18" y="19" width="1" height="1" fill="#77511e"/><rect x="19" y="19" width="1" height="1" fill="#8a5e24"/><rect x="9" y="20" width="1" height="1" fill="#8a5e24"/><rect x="10" y="20" width="1" height="1" fill="#77511e"/><rect x="11" y="20" width="1" height="1" fill="#8a5e24"/><rect x="12" y="20" width="1" height="1" fill="#8a5e24"/><rect x="13" y="20" width="1" height="1" fill="#8a5e24"/><rect x="14" y="20" width="1" height="1" fill="#8a5e24"/><rect x="15" y="20" width="1" height="1" fill="#8a5e24"/><rect x="16" y="20" width="1" height="1" fill="#8a5e24"/><rect x="17" y="20" width="1" height="1" fill="#8a5e24"/><rect x="18" y="20" width="1" height="1" fill="#77511e"/><rect x="19" y="20" width="1" height="1" fill="#8a5e24"/><rect x="11" y="21" width="1" height="1" fill="#8a5e24"/><rect x="12" y="21" width="1" height="1" fill="#8a5e24"/><rect x="13" y="21" width="1" height="1" fill="#8a5e24"/><rect x="14" y="21" width="1" height="1" fill="#8a5e24"/><rect x="15" y="21" width="1" height="1" fill="#8a5e24"/><rect x="16" y="21" width="1" height="1" fill="#8a5e24"/><rect x="17" y="21" width="1" height="1" fill="#8a5e24"/><rect x="11" y="22" width="1" height="1" fill="#8a5e24"/><rect x="12" y="22" width="1" height="1" fill="#8a5e24"/><rect x="13" y="22" width="1" height="1" fill="#8a5e24"/><rect x="15" y="22" width="1" height="1" fill="#8a5e24"/><rect x="16" y="22" width="1" height="1" fill="#8a5e24"/><rect x="17" y="22" width="1" height="1" fill="#8a5e24"/><rect x="11" y="23" width="1" height="1" fill="#8a5e24"/><rect x="12" y="23" width="1" height="1" fill="#8a5e24"/><rect x="16" y="23" width="1" height="1" fill="#8a5e24"/><rect x="17" y="23" width="1" height="1" fill="#8a5e24"/></g><g id="Trait"><rect x="11" y="23" width="1" height="1" fill="#975ed8"/><rect x="12" y="23" width="1" height="1" fill="#975ed8"/><rect x="16" y="23" width="1" height="1" fill="#975ed8"/><rect x="17" y="23" width="1" height="1" fill="#975ed8"/></g><g id="Trait"><rect x="11" y="21" width="1" height="1" fill="#5a8635"/><rect x="12" y="21" width="1" height="1" fill="#475d36"/><rect x="13" y="21" width="1" height="1" fill="#567b37"/><rect x="14" y="21" width="1" height="1" fill="#5a8635"/><rect x="15" y="21" width="1" height="1" fill="#475d36"/><rect x="16" y="21" width="1" height="1" fill="#567b37"/><rect x="17" y="21" width="1" height="1" fill="#567b37"/><rect x="11" y="22" width="1" height="1" fill="#567b37"/><rect x="12" y="22" width="1" height="1" fill="#567b37"/><rect x="13" y="22" width="1" height="1" fill="#475d36"/><rect x="15" y="22" width="1" height="1" fill="#567b37"/><rect x="16" y="22" width="1" height="1" fill="#475d36"/><rect x="17" y="22" width="1" height="1" fill="#5a8635"/></g><g id="Trait"><rect x="10" y="17" width="1" height="1" fill="#68c8de"/><rect x="11" y="17" width="1" height="1" fill="#68c8de"/><rect x="12" y="17" width="1" height="1" fill="#f5f1f0"/><rect x="13" y="17" width="1" height="1" fill="#68c8de"/><rect x="14" y="17" width="1" height="1" fill="#f5f1f0"/><rect x="15" y="17" width="1" height="1" fill="#68c8de"/><rect x="16" y="17" width="1" height="1" fill="#f5f1f0"/><rect x="17" y="17" width="1" height="1" fill="#68c8de"/><rect x="18" y="17" width="1" height="1" fill="#68c8de"/><rect x="9" y="18" width="1" height="1" fill="#68c8de"/><rect x="10" y="18" width="1" height="1" fill="#68c8de"/><rect x="11" y="18" width="1" height="1" fill="#68c8de"/><rect x="12" y="18" width="1" height="1" fill="#f5f1f0"/><rect x="13" y="18" width="1" height="1" fill="#68c8de"/><rect x="14" y="18" width="1" height="1" fill="#f5f1f0"/><rect x="15" y="18" width="1" height="1" fill="#68c8de"/><rect x="16" y="18" width="1" height="1" fill="#f5f1f0"/><rect x="17" y="18" width="1" height="1" fill="#68c8de"/><rect x="18" y="18" width="1" height="1" fill="#68c8de"/><rect x="19" y="18" width="1" height="1" fill="#68c8de"/><rect x="9" y="19" width="1" height="1" fill="#f5f1f0"/><rect x="10" y="19" width="1" height="1" fill="#f5f1f0"/><rect x="11" y="19" width="1" height="1" fill="#68c8de"/><rect x="12" y="19" width="1" height="1" fill="#f5f1f0"/><rect x="13" y="19" width="1" height="1" fill="#68c8de"/><rect x="14" y="19" width="1" height="1" fill="#f5f1f0"/><rect x="15" y="19" width="1" height="1" fill="#68c8de"/><rect x="16" y="19" width="1" height="1" fill="#f5f1f0"/><rect x="17" y="19" width="1" height="1" fill="#68c8de"/><rect x="18" y="19" width="1" height="1" fill="#f5f1f0"/><rect x="19" y="19" width="1" height="1" fill="#f5f1f0"/><rect x="11" y="20" width="1" height="1" fill="#68c8de"/><rect x="12" y="20" width="1" height="1" fill="#68c8de"/><rect x="13" y="20" width="1" height="1" fill="#68c8de"/><rect x="14" y="20" width="1" height="1" fill="#68c8de"/><rect x="15" y="20" width="1" height="1" fill="#68c8de"/><rect x="16" y="20" width="1" height="1" fill="#68c8de"/><rect x="17" y="20" width="1" height="1" fill="#68c8de"/></g><g id="Trait"><rect x="11" y="7" width="1" height="1" fill="#b6481a"/><rect x="12" y="7" width="1" height="1" fill="#b6481a"/><rect x="13" y="7" width="1" height="1" fill="#b6481a"/><rect x="14" y="7" width="1" height="1" fill="#b6481a"/><rect x="16" y="7" width="1" height="1" fill="#b6481a"/><rect x="17" y="7" width="1" height="1" fill="#b6481a"/><rect x="18" y="7" width="1" height="1" fill="#b6481a"/><rect x="10" y="8" width="1" height="1" fill="#b6481a"/><rect x="11" y="8" width="1" height="1" fill="#d95b25"/><rect x="12" y="8" width="1" height="1" fill="#d95b25"/><rect x="13" y="8" width="1" height="1" fill="#d95b25"/><rect x="14" y="8" width="1" height="1" fill="#b6481a"/><rect x="15" y="8" width="1" height="1" fill="#b6481a"/><rect x="16" y="8" width="1" height="1" fill="#d95b25"/><rect x="17" y="8" width="1" height="1" fill="#d95b25"/><rect x="18" y="8" width="1" height="1" fill="#b6481a"/><rect x="19" y="8" width="1" height="1" fill="#d95b25"/><rect x="9" y="9" width="1" height="1" fill="#b6481a"/><rect x="10" y="9" width="1" height="1" fill="#d95b25"/><rect x="11" y="9" width="1" height="1" fill="#b6481a"/><rect x="12" y="9" width="1" height="1" fill="#b6481a"/><rect x="13" y="9" width="1" height="1" fill="#b6481a"/><rect x="14" y="9" width="1" height="1" fill="#b6481a"/><rect x="15" y="9" width="1" height="1" fill="#b6481a"/><rect x="16" y="9" width="1" height="1" fill="#b6481a"/><rect x="17" y="9" width="1" height="1" fill="#b6481a"/><rect x="18" y="9" width="1" height="1" fill="#b6481a"/><rect x="19" y="9" width="1" height="1" fill="#b6481a"/><rect x="20" y="9" width="1" height="1" fill="#d95b25"/><rect x="8" y="10" width="1" height="1" fill="#b6481a"/><rect x="9" y="10" width="1" height="1" fill="#d95b25"/><rect x="10" y="10" width="1" height="1" fill="#b6481a"/><rect x="11" y="10" width="1" height="1" fill="#d95b25"/><rect x="19" y="10" width="1" height="1" fill="#d95b25"/><rect x="20" y="10" width="1" height="1" fill="#b6481a"/><rect x="8" y="11" width="1" height="1" fill="#b6481a"/><rect x="9" y="11" width="1" height="1" fill="#d95b25"/><rect x="10" y="11" width="1" height="1" fill="#b6481a"/><rect x="20" y="11" width="1" height="1" fill="#b6481a"/><rect x="21" y="11" width="1" height="1" fill="#d95b25"/><rect x="7" y="12" width="1" height="1" fill="#b6481a"/><rect x="8" y="12" width="1" height="1" fill="#d95b25"/><rect x="9" y="12" width="1" height="1" fill="#b6481a"/><rect x="20" y="12" width="1" height="1" fill="#b6481a"/><rect x="21" y="12" width="1" height="1" fill="#d95b25"/><rect x="7" y="13" width="1" height="1" fill="#b6481a"/><rect x="8" y="13" width="1" height="1" fill="#d95b25"/><rect x="9" y="13" width="1" height="1" fill="#b6481a"/><rect x="20" y="13" width="1" height="1" fill="#d95b25"/><rect x="21" y="13" width="1" height="1" fill="#b6481a"/><rect x="7" y="14" width="1" height="1" fill="#b6481a"/><rect x="8" y="14" width="1" height="1" fill="#d95b25"/><rect x="9" y="14" width="1" height="1" fill="#b6481a"/><rect x="20" y="14" width="1" height="1" fill="#d95b25"/><rect x="21" y="14" width="1" height="1" fill="#b6481a"/><rect x="8" y="15" width="1" height="1" fill="#b6481a"/><rect x="9" y="15" width="1" height="1" fill="#d95b25"/><rect x="10" y="15" width="1" height="1" fill="#b6481a"/><rect x="19" y="15" width="1" height="1" fill="#d95b25"/><rect x="20" y="15" width="1" height="1" fill="#b6481a"/><rect x="21" y="15" width="1" height="1" fill="#d95b25"/><rect x="8" y="16" width="1" height="1" fill="#b6481a"/><rect x="9" y="16" width="1" height="1" fill="#d95b25"/><rect x="10" y="16" width="1" height="1" fill="#b6481a"/><rect x="18" y="16" width="1" height="1" fill="#b6481a"/><rect x="19" y="16" width="1" height="1" fill="#d95b25"/><rect x="20" y="16" width="1" height="1" fill="#b6481a"/><rect x="21" y="16" width="1" height="1" fill="#d95b25"/><rect x="7" y="17" width="1" height="1" fill="#b6481a"/><rect x="8" y="17" width="1" height="1" fill="#d95b25"/><rect x="9" y="17" width="1" height="1" fill="#b6481a"/><rect x="19" y="17" width="1" height="1" fill="#b6481a"/><rect x="21" y="17" width="1" height="1" fill="#b6481a"/></g><g id="Trait"><rect x="11" y="11" width="1" height="1" fill="#328dfd"/><rect x="12" y="11" width="1" height="1" fill="#328dfd"/><rect x="13" y="11" width="1" height="1" fill="#328dfd"/><rect x="14" y="11" width="1" height="1" fill="#328dfd"/><rect x="16" y="11" width="1" height="1" fill="#328dfd"/><rect x="17" y="11" width="1" height="1" fill="#328dfd"/><rect x="18" y="11" width="1" height="1" fill="#328dfd"/><rect x="19" y="11" width="1" height="1" fill="#328dfd"/><rect x="9" y="12" width="1" height="1" fill="#328dfd"/><rect x="10" y="12" width="1" height="1" fill="#328dfd"/><rect x="11" y="12" width="1" height="1" fill="#328dfd"/><rect x="12" y="12" width="1" height="1" fill="#dedede"/><rect x="13" y="12" width="1" height="1" fill="#000000"/><rect x="14" y="12" width="1" height="1" fill="#328dfd"/><rect x="15" y="12" width="1" height="1" fill="#328dfd"/><rect x="16" y="12" width="1" height="1" fill="#328dfd"/><rect x="17" y="12" width="1" height="1" fill="#dedede"/><rect x="18" y="12" width="1" height="1" fill="#000000"/><rect x="19" y="12" width="1" height="1" fill="#328dfd"/><rect x="9" y="13" width="1" height="1" fill="#328dfd"/><rect x="11" y="13" width="1" height="1" fill="#328dfd"/><rect x="12" y="13" width="1" height="1" fill="#dedede"/><rect x="13" y="13" width="1" height="1" fill="#000000"/><rect x="14" y="13" width="1" height="1" fill="#328dfd"/><rect x="16" y="13" width="1" height="1" fill="#328dfd"/><rect x="17" y="13" width="1" height="1" fill="#dedede"/><rect x="18" y="13" width="1" height="1" fill="#000000"/><rect x="19" y="13" width="1" height="1" fill="#328dfd"/><rect x="11" y="14" width="1" height="1" fill="#328dfd"/><rect x="12" y="14" width="1" height="1" fill="#328dfd"/><rect x="13" y="14" width="1" height="1" fill="#328dfd"/><rect x="14" y="14" width="1" height="1" fill="#328dfd"/><rect x="16" y="14" width="1" height="1" fill="#328dfd"/><rect x="17" y="14" width="1" height="1" fill="#328dfd"/><rect x="18" y="14" width="1" height="1" fill="#328dfd"/><rect x="19" y="14" width="1" height="1" fill="#328dfd"/></g></g></svg> 